<?xml version="1.0" encoding="UTF-8"?>
<svg width="32" height="32" viewBox="0 0 32 32" fill="none" xmlns="http://www.w3.org/2000/svg">
  <!-- Gradient Background -->
  <defs>
    <linearGradient id="gradient" x1="0%" y1="0%" x2="100%" y2="100%">
      <stop offset="0%" style="stop-color:#1a1a1a"/>
      <stop offset="100%" style="stop-color:#000000"/>
    </linearGradient>
  </defs>
  
  <!-- Background Circle with Gradient -->
  <circle cx="16" cy="16" r="16" fill="url(#gradient)"/>
  
  <!-- Stylized Letter E -->
  <path d="M10 8.5C10 7.67157 10.6716 7 11.5 7H22C22.5523 7 23 7.44772 23 8C23 8.55228 22.5523 9 22 9H12V14H20C20.5523 14 21 14.4477 21 15C21 15.5523 20.5523 16 20 16H12V21H22C22.5523 21 23 21.4477 23 22C23 22.5523 22.5523 23 22 23H11.5C10.6716 23 10 22.3284 10 21.5V8.5Z" fill="white">
    <!-- Animation for hover effect -->
    <animate 
      attributeName="d" 
      dur="0.3s" 
      begin="mouseover" 
      fill="freeze"
      from="M10 8.5C10 7.67157 10.6716 7 11.5 7H22C22.5523 7 23 7.44772 23 8C23 8.55228 22.5523 9 22 9H12V14H20C20.5523 14 21 14.4477 21 15C21 15.5523 20.5523 16 20 16H12V21H22C22.5523 21 23 21.4477 23 22C23 22.5523 22.5523 23 22 23H11.5C10.6716 23 10 22.3284 10 21.5V8.5Z"
      to="M10 8.5C10 7.67157 10.6716 7 11.5 7H22C22.5523 7 23 7.44772 23 8C23 8.55228 22.5523 9 22 9H12V14H20C20.5523 14 21 14.4477 21 15C21 15.5523 20.5523 16 20 16H12V21H22C22.5523 21 23 21.4477 23 22C23 22.5523 22.5523 23 22 23H11.5C10.6716 23 10 22.3284 10 21.5V8.5Z"/>
  </path>
  
  <!-- Decorative Line -->
  <path d="M9 15H21" stroke="white" stroke-width="0.5" stroke-opacity="0.3"/>
</svg>
